<svg width="80" height="80" viewBox="0 0 80 80" fill="none" xmlns="http://www.w3.org/2000/svg">
<g clip-path="url(#clip0_368_259)">
<mask id="mask0_368_259" style="mask-type:luminance" maskUnits="userSpaceOnUse" x="0" y="0" width="80" height="80">
<path d="M80 0H0V80H80V0Z" fill="white"/>
</mask>
<g mask="url(#mask0_368_259)">
<path d="M6.66699 31.6667V13.3333C6.66699 12.4493 7.01819 11.6014 7.64329 10.9763C8.26843 10.3512 9.11626 10 10.0003 10H70.0003C70.8843 10 71.7323 10.3512 72.3573 10.9763C72.9823 11.6014 73.3337 12.4493 73.3337 13.3333V31.6667C71.1237 31.6667 69.004 32.5446 67.441 34.1073C65.8783 35.6703 65.0003 37.79 65.0003 40C65.0003 42.21 65.8783 44.3297 67.441 45.8927C69.004 47.4553 71.1237 48.3333 73.3337 48.3333V66.6667C73.3337 67.5507 72.9823 68.3987 72.3573 69.0237C71.7323 69.6487 70.8843 70 70.0003 70H10.0003C9.11626 70 8.26843 69.6487 7.64329 69.0237C7.01819 68.3987 6.66699 67.5507 6.66699 66.6667V48.3333C8.87713 48.3333 10.9968 47.4553 12.5596 45.8927C14.1224 44.3297 15.0003 42.21 15.0003 40C15.0003 37.79 14.1224 35.6703 12.5596 34.1073C10.9968 32.5446 8.87713 31.6667 6.66699 31.6667ZM46.667 16.6667H13.3337V26.56C15.8377 27.801 17.9452 29.7168 19.4187 32.0915C20.8921 34.4663 21.6729 37.2053 21.6729 40C21.6729 42.7947 20.8921 45.5337 19.4187 47.9083C17.9452 50.2833 15.8377 52.199 13.3337 53.44V63.3333H46.667V16.6667ZM53.3337 16.6667V63.3333H66.667V53.44C64.163 52.199 62.0553 50.2833 60.582 47.9083C59.1087 45.5337 58.3277 42.7947 58.3277 40C58.3277 37.2053 59.1087 34.4663 60.582 32.0915C62.0553 29.7168 64.163 27.801 66.667 26.56V16.6667H53.3337Z" fill="black"/>
</g>
</g>
<defs>
<clipPath id="clip0_368_259">
<rect width="80" height="80" fill="white"/>
</clipPath>
</defs>
</svg>
