<svg width="40" height="40" viewBox="0 0 40 40" fill="none" xmlns="http://www.w3.org/2000/svg">
<path d="M32.5098 11.7598L29.9902 23.0098H15.6641L15.9277 24.2402H28.7598V26.7598H13.7598L10.8008 11.7598H7.49023V9.24023H12.9688L13.4375 11.7598H32.5098ZM27.9395 20.4902L29.4922 14.25H13.9355L15.166 20.4902H27.9395ZM18.7402 29.8652C18.7402 29.3574 18.5547 28.918 18.1836 28.5469C17.832 28.1758 17.3926 27.9902 16.8652 27.9902C16.3574 27.9902 15.918 28.1758 15.5469 28.5469C15.1758 28.918 14.9902 29.3574 14.9902 29.8652C14.9902 30.3926 15.1758 30.8418 15.5469 31.2129C15.918 31.5645 16.3574 31.7402 16.8652 31.7402C17.3926 31.7402 17.832 31.5645 18.1836 31.2129C18.5547 30.8418 18.7402 30.3926 18.7402 29.8652ZM27.5 29.8652C27.5 29.3574 27.3145 28.918 26.9434 28.5469C26.5918 28.1758 26.1523 27.9902 25.625 27.9902C25.0977 27.9902 24.6484 28.1758 24.2773 28.5469C23.9258 28.918 23.75 29.3574 23.75 29.8652C23.75 30.3926 23.9258 30.8418 24.2773 31.2129C24.6484 31.5645 25.0977 31.7402 25.625 31.7402C26.1523 31.7402 26.5918 31.5645 26.9434 31.2129C27.3145 30.8418 27.5 30.3926 27.5 29.8652Z" fill="white"/>
</svg>
