<svg width="70" height="70" viewBox="0 0 70 70" fill="none" xmlns="http://www.w3.org/2000/svg">
<path d="M51.6797 23.6797L48.3203 38.6797L29.2187 38.6797L29.5703 40.3203L46.6797 40.3203V43.6797L26.6797 43.6797L22.7344 23.6797H18.3203V20.3203L25.625 20.3203L26.25 23.6797L51.6797 23.6797ZM45.5859 35.3203L47.6562 27L26.9141 27L28.5547 35.3203L45.5859 35.3203ZM33.3203 47.8203C33.3203 47.1432 33.0729 46.5573 32.5781 46.0625C32.1094 45.5677 31.5234 45.3203 30.8203 45.3203C30.1432 45.3203 29.5573 45.5677 29.0625 46.0625C28.5677 46.5573 28.3203 47.1432 28.3203 47.8203C28.3203 48.5234 28.5677 49.1224 29.0625 49.6172C29.5573 50.0859 30.1432 50.3203 30.8203 50.3203C31.5234 50.3203 32.1094 50.0859 32.5781 49.6172C33.0729 49.1224 33.3203 48.5234 33.3203 47.8203ZM45 47.8203C45 47.1432 44.7526 46.5573 44.2578 46.0625C43.7891 45.5677 43.2031 45.3203 42.5 45.3203C41.7969 45.3203 41.1979 45.5677 40.7031 46.0625C40.2344 46.5573 40 47.1432 40 47.8203C40 48.5234 40.2344 49.1224 40.7031 49.6172C41.1979 50.0859 41.7969 50.3203 42.5 50.3203C43.2031 50.3203 43.7891 50.0859 44.2578 49.6172C44.7526 49.1224 45 48.5234 45 47.8203Z" fill="white"/>
</svg>