<svg width="26" height="25" viewBox="0 0 26 25" fill="none" xmlns="http://www.w3.org/2000/svg">
<path d="M12.5098 0C14.2285 0 15.8496 0.332031 17.373 0.996094C18.8965 1.64062 20.2246 2.5293 21.3574 3.66211C22.4902 4.79492 23.3789 6.12305 24.0234 7.64648C24.6875 9.15039 25.0195 10.7617 25.0195 12.4805C25.0195 14.2188 24.6875 15.8496 24.0234 17.373C23.3789 18.877 22.4902 20.1953 21.3574 21.3281C20.2246 22.4609 18.8965 23.3594 17.373 24.0234C15.8496 24.668 14.2285 24.9902 12.5098 24.9902C10.791 24.9902 9.16992 24.668 7.64648 24.0234C6.12305 23.3594 4.79492 22.4609 3.66211 21.3281C2.5293 20.1953 1.63086 18.877 0.966797 17.373C0.322266 15.8496 0 14.2188 0 12.4805C0 10.7617 0.322266 9.15039 0.966797 7.64648C1.63086 6.12305 2.5293 4.79492 3.66211 3.66211C4.79492 2.5293 6.12305 1.64062 7.64648 0.996094C9.16992 0.332031 10.791 0 12.5098 0ZM18.3398 16.377L14.4727 12.4805L18.3398 8.61328L16.377 6.65039L12.5098 10.5176L8.64258 6.65039L6.67969 8.61328L10.5469 12.4805L6.67969 16.377L8.64258 18.3398L12.5098 14.4434L16.377 18.3398L18.3398 16.377Z" fill="white"/>
</svg>
