<svg xmlns="http://www.w3.org/2000/svg" role="img" viewBox="0 0 320 120"><path fill="#141215" d="M53.7 47.6c3.8 0 7.4 2 9.4 4.8l.2.2c.1.1.2.2.2.3 1.3 1.7 3.4 2.7 5.7 2.7 4 0 7.3-3.3 7.3-7.3 0-1.9-.7-3.6-1.9-4.9-5-6.2-11-9.8-21-9.8-15.7 0-27.5 10.9-27.5 26.2 0 15.5 11.8 26.4 27.6 26.4 10.1 0 16-3.5 21-9.1 1.1-1.3 1.8-2.9 1.8-4.7 0-4-3.2-7.2-7.2-7.2-2.2 0-4.1 1-5.4 2.5-2.4 2.4-5.1 4.7-10.1 4.7-7.2 0-11.3-5.2-11.3-12.6-.1-7.1 3.9-12.2 11.2-12.2m68.1-10.7c-2.5-1.3-4.2-1.6-7.9-1.3-6.6.6-11.7 5.2-12.6 6.3v.3-.3c-.3-4.2-3.8-7.6-8.1-7.6-4.5 0-8.1 3.6-8.2 8V78c.1 4.4 3.7 7.9 8.2 7.9s8.1-3.6 8.2-8v-9.7c0-13.2 7.7-16.6 12-16.7 1.1 0 4 1.1 6.3.7 4.5-.8 7.4-5.1 6.6-9.5-.6-2.6-2.3-4.7-4.5-5.8m35.8 35.9c7.1 0 11.3-5.2 11.4-12.7 0-7.6-4.3-12.7-11.4-12.7s-11.5 5.1-11.5 12.7c0 7.4 4.4 12.7 11.5 12.7m0-39.2c15.6 0 27.7 11 27.7 26.4 0 15.3-12.1 26.2-27.7 26.2S129.8 75.3 129.8 60c0-15.4 12.2-26.4 27.8-26.4m63.7 14c3.8 0 7.4 2 9.4 4.8l.2.2c.1.1.2.2.2.3 1.3 1.7 3.4 2.7 5.7 2.7 4 0 7.3-3.3 7.3-7.3 0-1.9-.7-3.6-1.9-4.9-5-6.2-11-9.8-20.9-9.8-15.7 0-27.6 10.9-27.6 26.2 0 15.5 11.8 26.4 27.6 26.4 10.1 0 16-3.5 21-9.1 1.1-1.3 1.8-2.9 1.8-4.7 0-4-3.2-7.2-7.2-7.2-2.2 0-4.1 1-5.4 2.5-2.4 2.4-5.1 4.7-10.2 4.7-7.2 0-11.3-5.2-11.3-12.6.1-7.1 4.1-12.2 11.3-12.2m56.1 6c7.3 1.7 16.5 5.1 16.5 15.9 0 9.2-4.8 16.8-20.7 16.8-9.7 0-16-3-20.4-6.9l-.3-.3c-.2-.1-.3-.3-.4-.4s-.2-.3-.3-.4c-.2-.2-.3-.4-.4-.6 0 0-.1-.1-.1-.2-1.3-2.4-1-5.4 1-7.4 2.4-2.5 6.4-2.6 8.9-.3l-.1-.1c3.2 2.5 7 4 11.1 4 5.2 0 6.9-1 6.9-3.1 0-2.8-3.2-2.8-11.4-4.9-6.9-1.8-14.6-5.6-14.6-16.1 0-11.4 8.7-16 19.5-16 8.3 0 14.2 2.7 18.3 6.9 1.3 1.1 2.1 2.8 2.1 4.6 0 3.5-2.8 6.3-6.3 6.3-1.7 0-3.2-.6-4.3-1.7-2.4-2-5.9-3.8-9.7-3.8-3.6 0-5.4 1-5.4 3 0 2.8 3.2 3.2 10.1 4.7m21.9-17.5v-1.3H294v1.3h1.9v5.2h1.6v-5.2zm6.9 5.2v-4.6l-1.7 4.6h-1.1l-1.7-4.6v4.6h-1.5v-6.5h2.2l1.6 4.3 1.6-4.3h2.1v6.5z"/></svg>