<svg width="48" height="48" viewBox="0 0 48 48" fill="none" xmlns="http://www.w3.org/2000/svg">
<rect x="0.5" y="0.5" width="47" height="47" rx="23.5" fill="white"/>
<rect x="0.5" y="0.5" width="47" height="47" rx="23.5" stroke="#EAEAEA"/>
<g clip-path="url(#clip0_72_33)">
<path d="M23.9998 16.75C25.7698 16.75 27.3548 17.36 28.6048 18.55L32.0298 15.125C29.9498 13.19 27.2348 12 23.9998 12C19.3098 12 15.2548 14.69 13.2798 18.61L17.2698 21.705C18.2148 18.86 20.8698 16.75 23.9998 16.75Z" fill="#EA4335"/>
<path d="M35.4895 24.275C35.4895 23.49 35.4145 22.73 35.2995 22H23.9995V26.51H30.4695C30.1795 27.99 29.3395 29.25 28.0795 30.1L31.9445 33.1C34.1995 31.01 35.4895 27.92 35.4895 24.275Z" fill="#4285F4"/>
<path d="M17.2645 26.295C17.0245 25.57 16.8845 24.8 16.8845 24C16.8845 23.2 17.0195 22.43 17.2645 21.705L13.2745 18.61C12.4595 20.23 11.9995 22.06 11.9995 24C11.9995 25.94 12.4595 27.77 13.2795 29.39L17.2645 26.295Z" fill="#FBBC05"/>
<path d="M24.0004 36C27.2404 36 29.9654 34.935 31.9454 33.095L28.0804 30.095C27.0054 30.82 25.6204 31.245 24.0004 31.245C20.8704 31.245 18.2154 29.135 17.2654 26.29L13.2754 29.385C15.2554 33.31 19.3104 36 24.0004 36Z" fill="#34A853"/>
</g>
<defs>
<clipPath id="clip0_72_33">
<rect width="24" height="24" fill="white" transform="translate(11.9998 12)"/>
</clipPath>
</defs>
</svg>
