<svg width="48" height="48" viewBox="0 0 48 48" fill="none" xmlns="http://www.w3.org/2000/svg">
<g clip-path="url(#clip0_72_23)">
<path d="M24 48C37.2548 48 48 37.2548 48 24C48 10.7452 37.2548 0 24 0C10.7452 0 0 10.7452 0 24C0 37.2548 10.7452 48 24 48Z" fill="#FEE500"/>
<path fill-rule="evenodd" clip-rule="evenodd" d="M24.5005 14C18.7005 14 14.0005 17.8573 14.0005 22.616C14.0005 26.24 15.5352 27.76 17.9325 29.3387L17.9458 33.7587C17.9458 33.9573 18.1832 34.0707 18.3498 33.952L22.4365 31.0667C23.1032 31.176 23.7938 31.2333 24.5005 31.2333C30.3005 31.2333 35.0005 27.376 35.0005 22.616C35.0005 17.8573 30.2992 14 24.5005 14Z" fill="#371D1E"/>
</g>
<defs>
<clipPath id="clip0_72_23">
<rect width="48" height="48" fill="white"/>
</clipPath>
</defs>
</svg>
