<?xml version="1.0" encoding="UTF-8"?>
<svg id="_레이어_1" data-name="레이어_1" xmlns="http://www.w3.org/2000/svg" version="1.1" viewBox="0 0 512 512">
  <!-- Generator: Adobe Illustrator 29.8.3, SVG Export Plug-In . SVG Version: 2.1.1 Build 3)  -->
  <defs>
    <style>
      .st0 {
        fill: #444;
      }
    </style>
  </defs>
  <g id="_01_align_center">
    <path class="st0" d="M284.54,17.77c-16.23-14.61-40.86-14.61-57.09,0L0,222.49v221.87c0,37.7,30.56,68.27,68.27,68.27h375.47c37.7,0,68.27-30.56,68.27-68.27h0v-221.87L284.54,17.77ZM320,469.89h-128v-107.22c0-35.35,28.65-64,64-64s64,28.65,64,64v107.22ZM469.33,444.29c0,14.14-11.46,25.6-25.6,25.6h-81.07v-107.22c0-58.91-47.76-106.67-106.67-106.67s-106.67,47.76-106.67,106.67v107.22h-81.07c-14.14,0-25.6-11.46-25.6-25.6h0v-202.82L256,49.47l213.33,192v202.82Z"/>
  </g>
</svg>