<svg width="180" height="35" viewBox="0 0 180 35" fill="none" xmlns="http://www.w3.org/2000/svg">
<path d="M17.8704 9.58854C20.2929 9.58854 22.5879 10.8646 23.8629 12.651L23.9904 12.7786C24.0541 12.8424 24.1179 12.9063 24.1179 12.9701C24.9466 14.0547 26.2854 14.6927 27.7516 14.6927C30.3016 14.6927 32.4054 12.5872 32.4054 10.0352C32.4054 8.82292 31.9591 7.73828 31.1941 6.90886C28.0066 2.95313 24.1816 0.65625 17.8066 0.65625C7.79789 0.65625 0.275391 7.61068 0.275391 17.3724C0.275391 27.2617 7.79789 34.2161 17.8704 34.2161C24.3091 34.2161 28.0704 31.9831 31.2579 28.4102C31.9591 27.5807 32.4054 26.5599 32.4054 25.4115C32.4054 22.8594 30.3654 20.8177 27.8154 20.8177C26.4129 20.8177 25.2016 21.4557 24.3729 22.4128C22.8429 23.944 21.1216 25.4115 17.9341 25.4115C13.3441 25.4115 10.7304 22.0938 10.7304 17.3724C10.6666 12.8424 13.2166 9.58854 17.8704 9.58854ZM61.2841 2.76172C59.6904 1.93229 58.6066 1.74089 56.2479 1.93229C52.0404 2.3151 48.7891 5.25 48.2154 5.95182C48.0241 3.27214 45.7929 1.10287 43.0516 1.10287C40.1829 1.10287 37.8879 3.39974 37.8241 6.20703V28.9844C37.8879 31.7917 40.1829 34.0247 43.0516 34.0247C45.9204 34.0247 48.2154 31.7279 48.2791 28.9206V22.7318C48.2791 14.3099 53.1879 12.1406 55.9291 12.0768C56.6304 12.0768 58.4791 12.7786 59.9454 12.5234C62.8141 12.013 64.6629 9.26953 64.1529 6.46224C63.7704 4.80339 62.6866 3.46354 61.2841 2.76172ZM84.1066 25.6667C88.6329 25.6667 91.3104 22.349 91.3741 17.5638C91.3741 12.7148 88.6329 9.46094 84.1066 9.46094C79.5804 9.46094 76.7754 12.7148 76.7754 17.5638C76.7754 22.2852 79.5804 25.6667 84.1066 25.6667ZM84.1066 0.65625C94.0516 0.65625 101.765 7.67448 101.765 17.5C101.765 27.2617 94.0516 34.2161 84.1066 34.2161C74.1616 34.2161 66.3841 27.2617 66.3841 17.5C66.3841 7.67448 74.1616 0.65625 84.1066 0.65625ZM124.715 9.58854C127.138 9.58854 129.433 10.8646 130.708 12.651L130.835 12.7786C130.899 12.8424 130.963 12.9063 130.963 12.9701C131.792 14.0547 133.13 14.6927 134.597 14.6927C137.147 14.6927 139.25 12.5872 139.25 10.0352C139.25 8.82292 138.804 7.73828 138.039 6.90886C134.852 2.95313 131.027 0.65625 124.715 0.65625C114.707 0.65625 107.12 7.61068 107.12 17.3724C107.12 27.2617 114.643 34.2161 124.715 34.2161C131.154 34.2161 134.915 31.9831 138.103 28.4102C138.804 27.5807 139.25 26.5599 139.25 25.4115C139.25 22.8594 137.21 20.8177 134.66 20.8177C133.258 20.8177 132.047 21.4557 131.218 22.4128C129.688 23.944 127.967 25.4115 124.715 25.4115C120.125 25.4115 117.512 22.0938 117.512 17.3724C117.575 12.8424 120.125 9.58854 124.715 9.58854ZM160.479 13.4167C165.133 14.5013 170.998 16.6706 170.998 23.5612C170.998 29.431 167.938 34.2799 157.802 34.2799C151.618 34.2799 147.602 32.3659 144.797 29.8776L144.605 29.6862C144.478 29.6224 144.414 29.4948 144.35 29.431C144.287 29.3672 144.223 29.2396 144.159 29.1758C144.032 29.0482 143.968 28.9206 143.904 28.793C143.904 28.793 143.84 28.7292 143.84 28.6654C143.012 27.1341 143.203 25.2201 144.478 23.944C146.008 22.349 148.558 22.2852 150.152 23.7526L150.088 23.6888C152.128 25.2839 154.55 26.2409 157.164 26.2409C160.479 26.2409 161.563 25.6029 161.563 24.263C161.563 22.4766 159.523 22.4766 154.295 21.1367C149.897 19.9883 144.988 17.5638 144.988 10.8646C144.988 3.59115 150.534 0.65625 157.419 0.65625C162.71 0.65625 166.472 2.37891 169.085 5.05859C169.914 5.76042 170.424 6.84505 170.424 7.99349C170.424 10.2266 168.639 12.013 166.408 12.013C165.324 12.013 164.368 11.6302 163.667 10.9284C162.137 9.65234 159.905 8.50391 157.483 8.50391C155.188 8.50391 154.04 9.14193 154.04 10.418C154.04 12.2044 156.08 12.4596 160.479 13.4167ZM174.44 2.2513V1.42188H171.062V2.2513H172.273V5.56901H173.293V2.2513H174.44ZM178.839 5.56901V2.63412L177.755 5.56901H177.054L175.97 2.63412V5.56901H175.014V1.42188H176.417L177.437 4.16536L178.457 1.42188H179.795V5.56901H178.839Z" fill="#141215"/>
</svg>
