<svg width="70" height="70" viewBox="0 0 70 70" fill="none" xmlns="http://www.w3.org/2000/svg">
<path d="M35 18.6797C37.2917 18.6797 39.4531 19.1224 41.4844 20.0078C43.5156 20.8672 45.2865 22.0521 46.7969 23.5625C48.3073 25.0729 49.4922 26.8438 50.3516 28.875C51.237 30.8802 51.6797 33.0286 51.6797 35.3203C51.6797 37.638 51.237 39.8125 50.3516 41.8438C49.4922 43.849 48.3073 45.6068 46.7969 47.1172C45.2865 48.6276 43.5156 49.8255 41.4844 50.7109C39.4531 51.5703 37.2917 52 35 52C32.7083 52 30.5469 51.5703 28.5156 50.7109C26.4844 49.8255 24.7135 48.6276 23.2031 47.1172C21.6927 45.6068 20.4948 43.849 19.6094 41.8438C18.75 39.8125 18.3203 37.638 18.3203 35.3203C18.3203 33.0286 18.75 30.8802 19.6094 28.875C20.4948 26.8438 21.6927 25.0729 23.2031 23.5625C24.7135 22.0521 26.4844 20.8672 28.5156 20.0078C30.5469 19.1224 32.7083 18.6797 35 18.6797ZM35 48.6797C36.849 48.6797 38.5807 48.3281 40.1953 47.625C41.8099 46.9219 43.2161 45.9714 44.4141 44.7734C45.638 43.5495 46.5885 42.1302 47.2656 40.5156C47.9687 38.901 48.3203 37.1693 48.3203 35.3203C48.3203 33.4974 47.9688 31.7786 47.2656 30.1641C46.5885 28.5234 45.638 27.1042 44.4141 25.9063C43.2161 24.7083 41.8099 23.7578 40.1953 23.0547C38.5807 22.3516 36.849 22 35 22C33.151 22 31.4193 22.3516 29.8047 23.0547C28.1901 23.7578 26.7708 24.7083 25.5469 25.9063C24.349 27.1042 23.3984 28.5234 22.6953 30.1641C22.0182 31.7786 21.6797 33.4974 21.6797 35.3203C21.6797 37.1693 22.0182 38.901 22.6953 40.5156C23.3984 42.1302 24.349 43.5495 25.5469 44.7734C26.7708 45.9714 28.1901 46.9219 29.8047 47.625C31.4193 48.3281 33.151 48.6797 35 48.6797ZM33.3203 25.3203V33.6797H26.6797V37H36.6797V25.3203L33.3203 25.3203Z" fill="white"/>
</svg>
