<svg width="40" height="40" viewBox="0 0 40 40" fill="none" xmlns="http://www.w3.org/2000/svg">
<path d="M28.7598 18.6152C28.7598 20.0801 28.4766 21.4668 27.9102 22.7754C27.3633 24.0645 26.6016 25.1875 25.625 26.1445C24.668 27.1016 23.5449 27.8633 22.2559 28.4297C20.9668 28.9766 19.5898 29.25 18.125 29.25C16.6602 29.25 15.2832 28.9766 13.9941 28.4297C12.7051 27.8633 11.5723 27.1016 10.5957 26.1445C9.63867 25.1875 8.87695 24.0645 8.31055 22.7754C7.76367 21.4668 7.49023 20.0801 7.49023 18.6152C7.49023 17.1504 7.76367 15.7734 8.31055 14.4844C8.87695 13.1953 9.63867 12.0723 10.5957 11.1152C11.5723 10.1582 12.7051 9.40625 13.9941 8.85938C15.2832 8.29297 16.6602 8.00977 18.125 8.00977C19.5898 8.00977 20.9668 8.29297 22.2559 8.85938C23.5449 9.40625 24.668 10.1582 25.625 11.1152C26.6016 12.0723 27.3633 13.1953 27.9102 14.4844C28.4766 15.7734 28.7598 17.1504 28.7598 18.6152ZM18.125 26.7598C19.2383 26.7598 20.2832 26.5449 21.2598 26.1152C22.2559 25.6855 23.125 25.1094 23.8672 24.3867C24.6094 23.6445 25.1855 22.7852 25.5957 21.8086C26.0254 20.8125 26.2402 19.748 26.2402 18.6152C26.2402 17.502 26.0254 16.457 25.5957 15.4805C25.1855 14.4844 24.6094 13.625 23.8672 12.9023C23.125 12.1602 22.2559 11.5742 21.2598 11.1445C20.2832 10.7148 19.2383 10.5 18.125 10.5C17.0117 10.5 15.957 10.7148 14.9609 11.1445C13.9844 11.5742 13.125 12.1602 12.3828 12.9023C11.6406 13.625 11.0547 14.4844 10.625 15.4805C10.2148 16.457 10.0098 17.502 10.0098 18.6152C10.0098 19.748 10.2148 20.8125 10.625 21.8086C11.0547 22.7852 11.6406 23.6445 12.3828 24.3867C13.125 25.1094 13.9844 25.6855 14.9609 26.1152C15.957 26.5449 17.0117 26.7598 18.125 26.7598ZM25.5957 27.9023L30.6934 33L32.4805 31.1836L27.4121 26.1152L25.5957 27.9023Z" fill="white"/>
</svg>
