<svg width="40" height="40" viewBox="0 0 40 40" fill="none" xmlns="http://www.w3.org/2000/svg">
<path d="M20 11.7598C20.6836 11.7598 21.2695 12.0039 21.7578 12.4922C22.2461 12.9805 22.4902 13.5664 22.4902 14.25C22.4902 14.9336 22.2461 15.5195 21.7578 16.0078C21.2695 16.4961 20.6836 16.7402 20 16.7402C19.3164 16.7402 18.7305 16.4961 18.2422 16.0078C17.7539 15.5195 17.5098 14.9336 17.5098 14.25C17.5098 13.5664 17.7539 12.9805 18.2422 12.4922C18.7305 12.0039 19.3164 11.7598 20 11.7598ZM20 9.24023C18.6133 9.24023 17.4316 9.72852 16.4551 10.7051C15.4785 11.6816 14.9902 12.8633 14.9902 14.25C14.9902 15.6367 15.4785 16.8184 16.4551 17.7949C17.4316 18.7715 18.6133 19.2598 20 19.2598C21.3867 19.2598 22.5684 18.7715 23.5449 17.7949C24.5215 16.8184 25.0098 15.6367 25.0098 14.25C25.0098 12.8633 24.5215 11.6816 23.5449 10.7051C22.5684 9.72852 21.3867 9.24023 20 9.24023ZM29.9902 30.5098H27.5C27.5 29.3965 27.3145 28.3809 26.9434 27.4629C26.5723 26.5449 26.0547 25.7539 25.3906 25.0898C24.7461 24.4258 23.9648 23.918 23.0469 23.5664C22.1289 23.1953 21.1133 23.0098 20 23.0098C18.8867 23.0098 17.8711 23.1953 16.9531 23.5664C16.0352 23.918 15.2441 24.4258 14.5801 25.0898C13.9355 25.7539 13.4277 26.5449 13.0566 27.4629C12.6855 28.3809 12.5 29.3965 12.5 30.5098H10.0098C10.0098 29.0449 10.2539 27.707 10.7422 26.4961C11.25 25.2656 11.9434 24.2109 12.8223 23.332C13.7207 22.4336 14.7754 21.7402 15.9863 21.252C17.2168 20.7441 18.5547 20.4902 20 20.4902C21.4453 20.4902 22.7734 20.7441 23.9844 21.252C25.2148 21.7402 26.2695 22.4336 27.1484 23.332C28.0469 24.2109 28.7402 25.2656 29.2285 26.4961C29.7363 27.707 29.9902 29.0449 29.9902 30.5098Z" fill="white"/>
</svg>
